# xmcd
#
# Track frame offsets:
#	150
#	14620
#	32032
#	47010
#	62596
#	76798
#	93358
#	110532
#	125158
#	142943
#	158686
#
# Disc length: 2281 seconds
#
# Revision: 0
# Processed by: cddbd v1.5.1PL0 Copyright (c) Steve Scherf et al.
# Submitted via: audiograbber 1.83.01
#
DISCID=8708e70b
DTITLE=Diamond Rio - Four IV - Diamond Rio - Four IV
DYEAR=1996
DGENRE=Country
TTITLE0=Holdin'
TTITLE1=Walkin' Away
TTITLE2=That's What I Get for Loving You
TTITLE3=She Misses Him on Sunday the Most
TTITLE4=She Sure Did Like to Run
TTITLE5=It's All in Your Head
TTITLE6=Who Am I
TTITLE7=Love Takes You There
TTITLE8=Is That Askin' Too Much
TTITLE9=Just Another Heart
TTITLE10=Big
EXTD=
EXTT0=
EXTT1=
EXTT2=
EXTT3=
EXTT4=
EXTT5=
EXTT6=
EXTT7=
EXTT8=
EXTT9=
EXTT10=
PLAYORDER=
